<svg version="1.1" xmlns="http://www.w3.org/2000/svg" viewBox="0 0 633 819" width="1899" height="2457">
  <!-- svg-source:excalidraw -->
  
  <defs>
    <style class="style-fonts">
      @font-face {
        font-family: "Virgil";
        src: url("https://excalidraw.com/Virgil.woff2");
      }
      @font-face {
        font-family: "Cascadia";
        src: url("https://excalidraw.com/Cascadia.woff2");
      }
    </style>
  </defs>
  <rect x="0" y="0" width="633" height="819" fill="#ffffff"></rect><g stroke-linecap="round" transform="translate(30 37.090909090909065) rotate(0 286.5 51.5)"><path d="M6.2 6.71 C6.2 6.71, 6.2 6.71, 6.2 6.71 M6.2 6.71 C6.2 6.71, 6.2 6.71, 6.2 6.71 M3.31 16.13 C8.17 13.22, 8.36 5.91, 15.12 2.54 M3.31 16.13 C7.1 11.85, 10.33 4.56, 15.12 2.54 M0.43 25.55 C6.13 19, 16.25 11.73, 21.42 1.4 M0.43 25.55 C8.78 18.93, 16.96 7.11, 21.42 1.4 M0.17 31.94 C10.21 25.87, 11.51 15.94, 27.06 1 M0.17 31.94 C6.79 23.52, 16.19 17.36, 27.06 1 M0.56 37.59 C14.97 26.21, 22.8 17.64, 32.05 1.36 M0.56 37.59 C11.47 26.09, 18.74 17.96, 32.05 1.36 M0.3 43.98 C15.51 27.67, 23.73 20.83, 37.69 0.97 M0.3 43.98 C11.73 27.38, 26.87 13.98, 37.69 0.97 M0.69 49.63 C9.31 37.66, 26.6 20.4, 42.68 1.33 M0.69 49.63 C15.92 30.98, 28.96 17.71, 42.68 1.33 M1.09 55.27 C16.72 39.4, 28.19 29.36, 48.32 0.93 M1.09 55.27 C19.04 36.58, 30.69 19.52, 48.32 0.93 M0.83 61.67 C12.42 46.9, 24.42 35.24, 53.31 1.29 M0.83 61.67 C18.01 42.7, 35.65 22.89, 53.31 1.29 M1.22 67.31 C18.77 44.89, 44.33 20.38, 58.95 0.9 M1.22 67.31 C18.32 48.51, 31.99 26.76, 58.95 0.9 M1.62 72.95 C19.81 51.63, 30.73 34.68, 63.94 1.26 M1.62 72.95 C21.49 49.82, 41.37 29.5, 63.94 1.26 M1.35 79.35 C19.5 56.64, 35.2 39.14, 69.58 0.86 M1.35 79.35 C23.47 53.95, 44.08 28.75, 69.58 0.86 M1.75 85 C28.58 56.71, 46.66 30.91, 74.57 1.22 M1.75 85 C19.88 67.39, 35.88 43.28, 74.57 1.22 M2.8 89.88 C24.72 68.97, 45.05 41.82, 80.21 0.83 M2.8 89.88 C23.7 64.59, 48.58 36.46, 80.21 0.83 M5.16 93.26 C33.8 62.21, 58.73 37.27, 85.2 1.19 M5.16 93.26 C35.8 58.55, 64.58 24.44, 85.2 1.19 M8.18 95.89 C34.44 67.63, 66.36 32.75, 90.84 0.79 M8.18 95.89 C31.16 64.9, 55.54 38.38, 90.84 0.79 M10.54 99.27 C28.46 84.04, 43.25 57.24, 95.83 1.15 M10.54 99.27 C29.07 75.09, 51.04 52.88, 95.83 1.15 M14.22 101.14 C41.93 71.86, 68.2 44.29, 100.82 1.51 M14.22 101.14 C46.27 66.89, 79.77 29.72, 100.82 1.51 M18.55 102.25 C33.84 83.53, 56.08 58.19, 106.46 1.12 M18.55 102.25 C44.88 73.74, 68.02 43.03, 106.46 1.12 M22.22 104.12 C50.15 73.92, 77.45 46.71, 111.45 1.48 M22.22 104.12 C56.8 65, 86.34 28.01, 111.45 1.48 M27.21 104.48 C53.9 75.51, 80.53 47.11, 117.09 1.09 M27.21 104.48 C64.29 64.58, 98.55 22.32, 117.09 1.09 M32.2 104.84 C54.95 82.92, 74.17 60.59, 122.08 1.45 M32.2 104.84 C62.64 68.34, 94.15 33.46, 122.08 1.45 M37.84 104.45 C65.86 75.62, 87.76 41.99, 127.72 1.05 M37.84 104.45 C55.08 83.76, 76.02 61.13, 127.72 1.05 M42.83 104.81 C72.94 73.77, 103.02 40.84, 132.71 1.41 M42.83 104.81 C68.95 74.37, 97.72 40.18, 132.71 1.41 M48.47 104.41 C78.97 62.82, 116 26.88, 138.35 1.02 M48.47 104.41 C69.17 79.38, 89.08 58.46, 138.35 1.02 M53.46 104.77 C73.9 76.24, 101.01 49.46, 143.34 1.38 M53.46 104.77 C82.38 74.4, 110.04 43.28, 143.34 1.38 M59.1 104.38 C81.83 75.63, 108.78 50.75, 148.98 0.98 M59.1 104.38 C82.03 84.82, 99.64 62.58, 148.98 0.98 M64.09 104.74 C93.36 70.5, 125.98 26.86, 153.97 1.34 M64.09 104.74 C90.99 71.18, 118.39 40.67, 153.97 1.34 M69.73 104.34 C87.32 85.17, 110.22 61.96, 159.61 0.95 M69.73 104.34 C96.98 75.03, 121.57 43.28, 159.61 0.95 M74.72 104.7 C94.19 83.6, 108.52 64.92, 164.6 1.31 M74.72 104.7 C104.34 65.03, 136.73 30.72, 164.6 1.31 M80.36 104.31 C112.32 68.44, 136.79 31.01, 170.24 0.91 M80.36 104.31 C100.01 80.92, 117.59 60.29, 170.24 0.91 M85.35 104.67 C110.09 74.46, 131.29 54.52, 175.23 1.27 M85.35 104.67 C107.04 80.9, 129.23 56.1, 175.23 1.27 M90.99 104.27 C126.36 68.51, 154 27.98, 180.87 0.88 M90.99 104.27 C110.78 77.83, 130.22 57.05, 180.87 0.88 M95.98 104.63 C113.95 84.44, 129.59 57.6, 185.86 1.24 M95.98 104.63 C122.56 68.85, 154.02 37.54, 185.86 1.24 M101.62 104.24 C130.4 72.59, 155.09 33.98, 191.5 0.84 M101.62 104.24 C127.34 70.7, 154.54 40.58, 191.5 0.84 M106.61 104.6 C126.25 82.95, 147.6 52.59, 196.49 1.2 M106.61 104.6 C124.03 83.59, 144.14 62.09, 196.49 1.2 M112.25 104.2 C130.08 81.19, 154.18 51.77, 201.48 1.56 M112.25 104.2 C135.89 74.36, 161.75 45.34, 201.48 1.56 M117.24 104.56 C156.15 65.84, 185.54 22.94, 207.12 1.17 M117.24 104.56 C137.16 85.09, 154.28 62.31, 207.12 1.17 M122.23 104.92 C152.76 68.47, 182.06 36.55, 212.11 1.53 M122.23 104.92 C150.55 71.06, 179.89 40.23, 212.11 1.53 M127.87 104.53 C152.12 74.47, 180.3 36.83, 217.75 1.13 M127.87 104.53 C161.41 69.43, 190.06 31.2, 217.75 1.13 M132.86 104.89 C159.05 73.48, 182.2 43.09, 222.74 1.49 M132.86 104.89 C152.56 80.87, 173.14 59.34, 222.74 1.49 M138.5 104.5 C175.89 69.13, 205.32 33.17, 228.38 1.1 M138.5 104.5 C170.93 68.09, 198.99 36.83, 228.38 1.1 M143.49 104.86 C164.44 76.56, 189.94 49.53, 233.37 1.46 M143.49 104.86 C172.06 74.89, 197.43 42.15, 233.37 1.46 M149.13 104.46 C182.09 66.33, 214.34 35.02, 239.01 1.07 M149.13 104.46 C177.24 73.97, 203.06 42.26, 239.01 1.07 M154.12 104.82 C177.14 79.38, 201.45 55.75, 244 1.43 M154.12 104.82 C187.87 64.34, 221.44 27.14, 244 1.43 M159.76 104.43 C190.81 69.66, 221.87 37.66, 249.64 1.03 M159.76 104.43 C192.97 67.1, 230.52 24.69, 249.64 1.03 M164.75 104.79 C193.34 65.52, 225.3 35.73, 254.63 1.39 M164.75 104.79 C197.15 71.46, 226.3 36.45, 254.63 1.39 M170.39 104.39 C195.12 73.56, 214.77 53.8, 260.27 1 M170.39 104.39 C195.9 72.45, 223.99 42.55, 260.27 1 M175.38 104.75 C199.45 82.74, 218.61 56.5, 265.26 1.36 M175.38 104.75 C208.65 67.6, 240.85 29.3, 265.26 1.36 M181.02 104.36 C205.29 75.54, 232.41 44.38, 270.9 0.96 M181.02 104.36 C215.15 67.27, 248.48 27.51, 270.9 0.96 M186.01 104.72 C216.11 64.68, 251.02 33.15, 275.89 1.32 M186.01 104.72 C218.03 69.29, 251.06 28.05, 275.89 1.32 M191.65 104.32 C214.74 81.07, 238.67 49.53, 281.53 0.93 M191.65 104.32 C214.6 78.02, 239.05 49.45, 281.53 0.93 M196.64 104.68 C222.05 70.11, 256.69 36.12, 286.52 1.29 M196.64 104.68 C222.57 74.49, 250.65 41.12, 286.52 1.29 M202.28 104.29 C225.89 74.88, 249.62 50.02, 291.5 1.65 M202.28 104.29 C229.4 72.08, 256.85 40.35, 291.5 1.65 M207.27 104.65 C228.28 83.16, 254.34 52.06, 297.15 1.25 M207.27 104.65 C225.87 80.54, 245.79 60.95, 297.15 1.25 M212.25 105.01 C242.33 71.68, 266.51 42.32, 302.13 1.61 M212.25 105.01 C248.01 69.2, 278.39 31.9, 302.13 1.61 M217.9 104.61 C247.64 68.78, 274.87 43.98, 307.78 1.22 M217.9 104.61 C241.56 78.21, 262.85 54.04, 307.78 1.22 M222.88 104.97 C255.65 70.55, 286.9 30.36, 312.76 1.58 M222.88 104.97 C248.48 71.78, 273.7 38.88, 312.76 1.58 M228.53 104.58 C253.64 69.6, 282.22 46.09, 318.41 1.18 M228.53 104.58 C253.76 77.03, 280.87 47.65, 318.41 1.18 M233.51 104.94 C265.56 73.62, 292.53 38.85, 323.39 1.54 M233.51 104.94 C265.32 63.76, 303.21 22.23, 323.39 1.54 M239.16 104.55 C271.34 65.17, 304.19 28.4, 329.04 1.15 M239.16 104.55 C260.35 81.55, 278.81 60.66, 329.04 1.15 M244.14 104.91 C273.18 71.2, 309.67 34.05, 334.02 1.51 M244.14 104.91 C268.43 78.55, 293.73 49.64, 334.02 1.51 M249.79 104.51 C284.53 68.85, 309.71 31.6, 339.67 1.12 M249.79 104.51 C275.66 73.85, 304.17 41.45, 339.67 1.12 M254.77 104.87 C274.89 86.67, 293.27 62.53, 344.65 1.48 M254.77 104.87 C274.73 83.06, 290.2 63.22, 344.65 1.48 M260.42 104.48 C290.76 70.41, 323.74 28.29, 350.3 1.08 M260.42 104.48 C277.96 81.04, 296.65 58.1, 350.3 1.08 M265.4 104.84 C300.09 63.98, 334.55 27.23, 355.28 1.44 M265.4 104.84 C284.41 82.45, 304.03 62.96, 355.28 1.44 M271.05 104.44 C307.86 61.96, 335.91 25.62, 360.93 1.05 M271.05 104.44 C305.91 62.03, 340.37 21.07, 360.93 1.05 M276.03 104.8 C307.68 67.05, 341.65 28.33, 365.91 1.41 M276.03 104.8 C302.82 69.8, 332.9 39.77, 365.91 1.41 M281.68 104.41 C313.84 67.48, 352.38 22.83, 371.56 1.01 M281.68 104.41 C310.18 71.33, 339.77 36.45, 371.56 1.01 M286.66 104.77 C317.41 69.89, 354.87 35.94, 376.54 1.37 M286.66 104.77 C314.54 69.24, 344.93 35.23, 376.54 1.37 M292.31 104.37 C323.01 66.07, 351.93 38.46, 382.19 0.98 M292.31 104.37 C327.53 65.73, 363.39 26.53, 382.19 0.98 M297.29 104.73 C330.02 65.79, 362.84 25.95, 387.17 1.34 M297.29 104.73 C323.4 76.19, 350.63 44.52, 387.17 1.34 M302.94 104.34 C323.24 72.27, 353.07 50.23, 392.16 1.7 M302.94 104.34 C324.81 77.16, 347.96 52.27, 392.16 1.7 M307.92 104.7 C336.04 68.48, 367.36 37.25, 397.8 1.3 M307.92 104.7 C339.92 70.89, 370.31 33.92, 397.8 1.3 M312.91 105.06 C343.16 74.42, 368.12 49.02, 402.79 1.66 M312.91 105.06 C341 75.68, 367.06 46.61, 402.79 1.66 M318.55 104.66 C350.38 68.76, 381.9 31.01, 408.43 1.27 M318.55 104.66 C348.18 75.34, 375.07 39.81, 408.43 1.27 M323.54 105.02 C355.92 65.82, 385.22 32.11, 413.42 1.63 M323.54 105.02 C356.27 66.54, 390.69 29.44, 413.42 1.63 M329.18 104.63 C355.91 75.38, 385.28 49.51, 419.06 1.23 M329.18 104.63 C361.34 68.51, 394.19 29.12, 419.06 1.23 M334.17 104.99 C355.91 74.91, 380.79 44.01, 424.05 1.59 M334.17 104.99 C353.56 79.71, 372.47 57.97, 424.05 1.59 M339.81 104.59 C377.84 69.49, 411.97 23.98, 429.69 1.2 M339.81 104.59 C365.85 73.48, 387.43 45.26, 429.69 1.2 M344.8 104.95 C376.05 71.9, 407.93 33.32, 434.68 1.56 M344.8 104.95 C368.54 76.42, 394.62 43.42, 434.68 1.56 M350.44 104.56 C383.12 66.43, 417.55 27.74, 440.33 1.16 M350.44 104.56 C386.94 66.02, 420.44 25.25, 440.33 1.16 M355.43 104.92 C379.52 76.13, 404.4 52.03, 445.31 1.53 M355.43 104.92 C383.01 73.21, 411.76 39.69, 445.31 1.53 M361.08 104.53 C383.72 74.64, 413.96 48.36, 450.96 1.13 M361.08 104.53 C383.33 77.03, 409.6 50.88, 450.96 1.13 M366.06 104.89 C391.61 69.6, 424.32 36.96, 455.94 1.49 M366.06 104.89 C390.79 74.56, 418.64 40.55, 455.94 1.49 M371.71 104.49 C400.57 70.06, 425.4 42.1, 461.59 1.1 M371.71 104.49 C394.76 80.18, 413.36 55.03, 461.59 1.1 M376.69 104.85 C401.52 76.4, 426.17 56.56, 466.57 1.46 M376.69 104.85 C408.12 65.14, 442.6 28.6, 466.57 1.46 M382.34 104.46 C404.02 81.22, 420.92 61.73, 472.22 1.06 M382.34 104.46 C406.12 81.67, 424.55 59.41, 472.22 1.06 M387.32 104.82 C410.87 81.54, 433.1 51.06, 477.2 1.42 M387.32 104.82 C417.22 68, 447.11 34.83, 477.2 1.42 M392.97 104.42 C421.2 73.81, 449.38 41.22, 482.19 1.78 M392.97 104.42 C425.16 63.29, 461.73 23.88, 482.19 1.78 M397.95 104.78 C419.46 71.84, 440.85 47.36, 487.83 1.39 M397.95 104.78 C420.31 81.34, 439.78 57.27, 487.83 1.39 M402.94 105.14 C434.69 71.43, 461.37 44.08, 492.82 1.75 M402.94 105.14 C437.38 65.27, 471.43 21.94, 492.82 1.75 M408.58 104.75 C437.23 70.12, 473.6 31.92, 498.46 1.35 M408.58 104.75 C438.18 69.95, 464.96 37.23, 498.46 1.35 M413.57 105.11 C434.7 86.43, 451.15 56.5, 503.45 1.71 M413.57 105.11 C445.74 66.38, 481.22 28.96, 503.45 1.71 M419.21 104.71 C456.05 70.62, 487.85 31.45, 509.09 1.32 M419.21 104.71 C439.48 82.88, 459.04 58.91, 509.09 1.32 M424.2 105.07 C449.9 83.06, 469.59 53.49, 514.08 1.68 M424.2 105.07 C447.32 81.48, 465 58.89, 514.08 1.68 M429.84 104.68 C458.05 71.58, 480.67 40.22, 519.72 1.28 M429.84 104.68 C456.94 73.33, 482.59 41.29, 519.72 1.28 M434.83 105.04 C466.07 65.87, 499.85 29.14, 524.71 1.64 M434.83 105.04 C452.7 81.96, 471 60.13, 524.71 1.64 M440.47 104.64 C467.81 71.68, 501.91 32.44, 530.35 1.25 M440.47 104.64 C461.84 81.07, 484.96 57.22, 530.35 1.25 M445.46 105 C464.54 82.17, 486.01 51.5, 535.34 1.61 M445.46 105 C465.88 80.54, 486.12 58.71, 535.34 1.61 M451.1 104.61 C479.66 71.38, 513.55 28.97, 540.98 1.21 M451.1 104.61 C485.16 65.6, 515.27 29.91, 540.98 1.21 M456.09 104.97 C475.66 82.18, 492.44 59.35, 545.97 1.57 M456.09 104.97 C485.84 75.59, 511.32 44.62, 545.97 1.57 M461.73 104.58 C488.38 74.26, 518.35 46.03, 551.61 1.18 M461.73 104.58 C492.41 72.18, 519.42 39.66, 551.61 1.18 M466.72 104.94 C488.47 78.66, 515.4 45.45, 555.94 2.29 M466.72 104.94 C494.48 73.96, 525.48 40.22, 555.94 2.29 M472.36 104.54 C499.7 66.66, 533.43 34.47, 559.62 4.16 M472.36 104.54 C490.36 86.7, 510.1 63.29, 559.62 4.16 M477.35 104.9 C497.47 78.23, 523.7 55.29, 563.29 6.03 M477.35 104.9 C504.55 69.19, 537.01 37.37, 563.29 6.03 M482.99 104.51 C509.66 69.25, 540.46 42.86, 567.62 7.15 M482.99 104.51 C508.94 75.78, 530.08 50.16, 567.62 7.15 M487.98 104.87 C510.75 76.47, 527.89 51.5, 569.99 10.53 M487.98 104.87 C518.97 67.76, 546.71 34.61, 569.99 10.53 M492.97 105.23 C510.67 84.46, 527.01 66.03, 571.69 14.66 M492.97 105.23 C509.71 87.32, 526.07 65.42, 571.69 14.66 M498.61 104.83 C519.83 81.26, 535.84 61.28, 571.43 21.06 M498.61 104.83 C519.68 84.09, 533.91 61.69, 571.43 21.06 M503.6 105.19 C525.84 77.34, 543.69 56.8, 571.83 26.7 M503.6 105.19 C520.43 86.89, 535.26 69.25, 571.83 26.7 M509.24 104.8 C526.45 86.67, 544.78 61.77, 572.22 32.35 M509.24 104.8 C534.81 75.53, 561.14 47.21, 572.22 32.35 M514.23 105.16 C530.88 87.37, 549.29 62.09, 571.96 38.74 M514.23 105.16 C536.42 78.27, 560.24 52.05, 571.96 38.74 M519.87 104.76 C536.92 79.48, 561.53 57.68, 572.36 44.39 M519.87 104.76 C529.96 91.84, 542.94 76.38, 572.36 44.39 M524.86 105.12 C545.86 81.88, 565.34 64.58, 572.09 50.78 M524.86 105.12 C542.24 88.52, 553.8 70.91, 572.09 50.78 M530.5 104.73 C547.57 85.01, 561.37 68.46, 572.49 56.43 M530.5 104.73 C544.42 87.78, 556.28 71.44, 572.49 56.43 M535.49 105.09 C542.16 94.74, 551.16 84.01, 572.23 62.82 M535.49 105.09 C543.37 93.46, 550.67 84.15, 572.23 62.82 M541.13 104.69 C549.73 92.19, 559.66 76.26, 572.62 68.47 M541.13 104.69 C550.69 95.27, 560.22 83.51, 572.62 68.47 M547.43 103.54 C557.38 94.97, 562.21 87.06, 573.02 74.11 M547.43 103.54 C557.59 94.12, 565.48 85.93, 573.02 74.11 M553.73 102.4 C560.17 93.23, 561.16 89.05, 572.75 80.51 M553.73 102.4 C561.68 97.4, 565.26 87.46, 572.75 80.51 M559.37 102 C561.42 100.04, 567.21 97.77, 574.46 84.64 M559.37 102 C562.8 98.1, 564.92 95.09, 574.46 84.64" stroke="#fab005" stroke-width="0.5" fill="none"></path><path d="M25.75 0 M25.75 0 C214.58 -2.59, 406.44 -4.06, 547.25 0 M25.75 0 C199.3 -0.65, 371.71 -0.85, 547.25 0 M547.25 0 C567.54 -0.82, 576.22 12.34, 573 25.75 M547.25 0 C565.36 1.33, 572.35 9.06, 573 25.75 M573 25.75 C576.48 46.67, 570.68 59.39, 573 77.25 M573 25.75 C574.27 39.87, 574.5 58.54, 573 77.25 M573 77.25 C572.68 96.99, 564.07 102.51, 547.25 103 M573 77.25 C575.1 92.77, 561.65 98.46, 547.25 103 M547.25 103 C432.3 100.26, 319.32 102.27, 25.75 103 M547.25 103 C440.1 104.16, 333.92 103.23, 25.75 103 M25.75 103 C12.4 106.85, -0.27 97.64, 0 77.25 M25.75 103 C12.62 102.37, 4.26 97.69, 0 77.25 M0 77.25 C-2.59 61.82, 0.02 37.49, 0 25.75 M0 77.25 C-0.56 60.03, -2.46 39.01, 0 25.75 M0 25.75 C-0.52 6.17, 11.33 0.3, 25.75 0 M0 25.75 C2.58 11.2, 9.64 -1.68, 25.75 0" stroke="#000000" stroke-width="1" fill="none"></path></g><g stroke-linecap="round" transform="translate(30 603.163795279015) rotate(0 286.5 51.5)"><path d="M6.2 6.71 C6.2 6.71, 6.2 6.71, 6.2 6.71 M6.2 6.71 C6.2 6.71, 6.2 6.71, 6.2 6.71 M3.31 16.13 C11.16 12.35, 11.39 6.08, 15.12 2.54 M3.31 16.13 C6.24 13.26, 9.5 9.51, 15.12 2.54 M0.43 25.55 C3.98 17.1, 14.34 8.31, 21.42 1.4 M0.43 25.55 C9.58 15.71, 15.09 6.48, 21.42 1.4 M0.17 31.94 C8.1 23.47, 10.37 13.82, 27.06 1 M0.17 31.94 C6.69 22.91, 18.41 10.95, 27.06 1 M0.56 37.59 C7.15 24.75, 13.38 22.87, 32.05 1.36 M0.56 37.59 C10.71 24.51, 25.61 12.24, 32.05 1.36 M0.3 43.98 C11.42 33.78, 13.05 23.39, 37.69 0.97 M0.3 43.98 C12.63 32.16, 25.91 16.35, 37.69 0.97 M0.69 49.63 C10.91 33.86, 33.49 18.13, 42.68 1.33 M0.69 49.63 C13.88 32.89, 30.82 17.32, 42.68 1.33 M1.09 55.27 C17.5 36.79, 33.36 20.09, 48.32 0.93 M1.09 55.27 C18.69 38.27, 36.1 19.41, 48.32 0.93 M0.83 61.67 C14.63 45.56, 26.96 31.66, 53.31 1.29 M0.83 61.67 C15.18 43.7, 30.67 27.57, 53.31 1.29 M1.22 67.31 C17.73 55.36, 29.07 41.8, 58.95 0.9 M1.22 67.31 C14.85 51.66, 29.92 35.29, 58.95 0.9 M1.62 72.95 C22.06 52.62, 46.72 22.97, 63.94 1.26 M1.62 72.95 C21.88 51.79, 40.48 31.12, 63.94 1.26 M1.35 79.35 C19.99 55.67, 38.54 32.3, 69.58 0.86 M1.35 79.35 C25.01 51.88, 46.04 28.62, 69.58 0.86 M1.75 85 C31.34 59.28, 52.73 23.72, 74.57 1.22 M1.75 85 C30.12 53.66, 58 21.42, 74.57 1.22 M2.8 89.88 C24.59 66.13, 46.4 40.82, 80.21 0.83 M2.8 89.88 C18.37 69.95, 36.11 50.21, 80.21 0.83 M5.16 93.26 C27 72.09, 43.08 46.94, 85.2 1.19 M5.16 93.26 C24.29 72.13, 42.15 52.52, 85.2 1.19 M8.18 95.89 C32.74 67.43, 55.37 40.49, 90.84 0.79 M8.18 95.89 C23.92 73.51, 42.68 53.54, 90.84 0.79 M10.54 99.27 C27.52 76.96, 53.81 53.5, 95.83 1.15 M10.54 99.27 C46.47 60.52, 78.41 18.64, 95.83 1.15 M14.22 101.14 C37.32 81.29, 55.14 60.73, 100.82 1.51 M14.22 101.14 C40.47 69.59, 65.81 38.59, 100.82 1.51 M18.55 102.25 C52.28 59.29, 85 25.85, 106.46 1.12 M18.55 102.25 C51.75 63.88, 86.65 24.46, 106.46 1.12 M22.22 104.12 C50.02 69.57, 71.93 40.89, 111.45 1.48 M22.22 104.12 C54.28 63.64, 91.54 26.94, 111.45 1.48 M27.21 104.48 C50.61 77.47, 70.46 54.97, 117.09 1.09 M27.21 104.48 C53.83 71.05, 83.32 41.3, 117.09 1.09 M32.2 104.84 C58.76 74.68, 89.95 40.84, 122.08 1.45 M32.2 104.84 C52.66 79.01, 73.46 57.29, 122.08 1.45 M37.84 104.45 C55.82 87.68, 74.47 63.9, 127.72 1.05 M37.84 104.45 C59.25 79.33, 79.34 55.33, 127.72 1.05 M42.83 104.81 C81.69 66.56, 111.66 23.15, 132.71 1.41 M42.83 104.81 C74.71 72.18, 101.99 38.96, 132.71 1.41 M48.47 104.41 C79 70.67, 106.47 45.19, 138.35 1.02 M48.47 104.41 C73.9 73.31, 99.31 45.62, 138.35 1.02 M53.46 104.77 C73.93 80.28, 96.93 49.08, 143.34 1.38 M53.46 104.77 C86.06 63.54, 120.38 24.48, 143.34 1.38 M59.1 104.38 C87.41 79.71, 112.69 48.02, 148.98 0.98 M59.1 104.38 C87.9 74.36, 114.53 40.56, 148.98 0.98 M64.09 104.74 C99.33 65.59, 130.38 20.25, 153.97 1.34 M64.09 104.74 C87.47 76.78, 112.87 46.61, 153.97 1.34 M69.73 104.34 C95.91 72.09, 124.23 38.09, 159.61 0.95 M69.73 104.34 C106.46 63.15, 142.48 22.1, 159.61 0.95 M74.72 104.7 C92 84.34, 117.4 61.97, 164.6 1.31 M74.72 104.7 C109.56 67.24, 139.64 33.04, 164.6 1.31 M80.36 104.31 C112.18 65.54, 148.4 28.05, 170.24 0.91 M80.36 104.31 C96.11 84.46, 115.19 60.63, 170.24 0.91 M85.35 104.67 C113.66 75.82, 143.19 45.11, 175.23 1.27 M85.35 104.67 C104.92 78.02, 129.13 54.54, 175.23 1.27 M90.99 104.27 C115.17 78.52, 137.15 54.56, 180.87 0.88 M90.99 104.27 C122.5 66, 154.83 29.07, 180.87 0.88 M95.98 104.63 C112.89 77.01, 138.25 57.87, 185.86 1.24 M95.98 104.63 C118.67 81.97, 142.35 54.25, 185.86 1.24 M101.62 104.24 C120.74 82.43, 134.59 58.97, 191.5 0.84 M101.62 104.24 C132.39 67.53, 162 31.41, 191.5 0.84 M106.61 104.6 C129.9 74.08, 149 47.08, 196.49 1.2 M106.61 104.6 C137.62 66.71, 172.19 28.06, 196.49 1.2 M112.25 104.2 C136.19 71.99, 165.48 45.46, 201.48 1.56 M112.25 104.2 C141.37 68.31, 174.95 31.65, 201.48 1.56 M117.24 104.56 C145.42 72.89, 166.73 44.81, 207.12 1.17 M117.24 104.56 C147.45 69.03, 180.63 35.02, 207.12 1.17 M122.23 104.92 C161.82 60.26, 191.72 22.14, 212.11 1.53 M122.23 104.92 C142.68 84.16, 159.71 61.64, 212.11 1.53 M127.87 104.53 C158.02 64.5, 186.96 31.9, 217.75 1.13 M127.87 104.53 C159.17 69.77, 189.06 37.5, 217.75 1.13 M132.86 104.89 C151.81 79.79, 175.28 60.54, 222.74 1.49 M132.86 104.89 C160.97 71.4, 191.42 32.26, 222.74 1.49 M138.5 104.5 C170.6 63.89, 209.81 21.27, 228.38 1.1 M138.5 104.5 C158.55 79.77, 179.81 53.83, 228.38 1.1 M143.49 104.86 C178.32 71.59, 206.11 30.86, 233.37 1.46 M143.49 104.86 C173.43 68.99, 203.94 33.62, 233.37 1.46 M149.13 104.46 C186.21 60.73, 219.97 24.76, 239.01 1.07 M149.13 104.46 C171.36 80.95, 191.37 57.43, 239.01 1.07 M154.12 104.82 C177.44 81.14, 195.39 53.97, 244 1.43 M154.12 104.82 C174.62 80.8, 193.38 58.64, 244 1.43 M159.76 104.43 C184.07 81.02, 202.61 58.7, 249.64 1.03 M159.76 104.43 C195.32 68.95, 226.3 32.7, 249.64 1.03 M164.75 104.79 C183.97 88.59, 202.28 60.52, 254.63 1.39 M164.75 104.79 C191.9 72.08, 221.75 39.22, 254.63 1.39 M170.39 104.39 C201.37 63.42, 239.16 30.28, 260.27 1 M170.39 104.39 C202.35 66.2, 235.6 24.82, 260.27 1 M175.38 104.75 C192.17 84.04, 210.71 62.32, 265.26 1.36 M175.38 104.75 C198.52 75.15, 222.21 48.05, 265.26 1.36 M181.02 104.36 C201.86 78.29, 224.05 49.98, 270.9 0.96 M181.02 104.36 C208.94 66.21, 242.93 30.05, 270.9 0.96 M186.01 104.72 C207.33 78.5, 233.06 50.01, 275.89 1.32 M186.01 104.72 C220.21 64.79, 253.46 24.47, 275.89 1.32 M191.65 104.32 C215.04 74.51, 239.74 51.57, 281.53 0.93 M191.65 104.32 C211.36 83.43, 227.91 62.82, 281.53 0.93 M196.64 104.68 C224.02 69.48, 254.31 43.2, 286.52 1.29 M196.64 104.68 C220.45 78.41, 245.2 52.18, 286.52 1.29 M202.28 104.29 C230.58 75.21, 253.03 44.92, 291.5 1.65 M202.28 104.29 C235.76 65.4, 269.91 30.28, 291.5 1.65 M207.27 104.65 C227.75 86.23, 243.71 59.14, 297.15 1.25 M207.27 104.65 C223.21 81.87, 244.69 59.6, 297.15 1.25 M212.25 105.01 C238.21 73.76, 263.89 49.38, 302.13 1.61 M212.25 105.01 C240.79 69.34, 269.99 36.12, 302.13 1.61 M217.9 104.61 C237.51 79.89, 255.31 62.15, 307.78 1.22 M217.9 104.61 C252.26 64.07, 290.17 21.79, 307.78 1.22 M222.88 104.97 C247.07 70.96, 276.91 40.64, 312.76 1.58 M222.88 104.97 C254.07 68.44, 284.86 32.27, 312.76 1.58 M228.53 104.58 C260.98 66.45, 299.22 19.94, 318.41 1.18 M228.53 104.58 C258.03 71.49, 285.76 36.41, 318.41 1.18 M233.51 104.94 C260.66 69.74, 292.12 35.77, 323.39 1.54 M233.51 104.94 C255.95 73.39, 279.07 45.06, 323.39 1.54 M239.16 104.55 C263.56 80.91, 282.68 51.1, 329.04 1.15 M239.16 104.55 C268.52 70.24, 302.21 33.02, 329.04 1.15 M244.14 104.91 C279.77 63.17, 315 26.48, 334.02 1.51 M244.14 104.91 C271.71 71.16, 302.03 37.3, 334.02 1.51 M249.79 104.51 C283.2 64.23, 316.67 26.69, 339.67 1.12 M249.79 104.51 C280.47 67.33, 308.24 34.42, 339.67 1.12 M254.77 104.87 C284.66 68.25, 322.87 28.54, 344.65 1.48 M254.77 104.87 C288.62 66.69, 319.26 27.76, 344.65 1.48 M260.42 104.48 C277.63 78.41, 301.45 60.71, 350.3 1.08 M260.42 104.48 C276.16 84.15, 295.24 60.71, 350.3 1.08 M265.4 104.84 C302.17 67.59, 333.94 26.9, 355.28 1.44 M265.4 104.84 C295.95 65.52, 332.5 28.46, 355.28 1.44 M271.05 104.44 C297.26 75.45, 321.2 43.65, 360.93 1.05 M271.05 104.44 C294.79 80.25, 316.64 55.81, 360.93 1.05 M276.03 104.8 C305.44 66.01, 335.1 33.58, 365.91 1.41 M276.03 104.8 C295.59 82.48, 312.25 62, 365.91 1.41 M281.68 104.41 C303.84 70.2, 332.84 41.39, 371.56 1.01 M281.68 104.41 C312.74 67.71, 344.26 32.47, 371.56 1.01 M286.66 104.77 C319.22 71.25, 353.13 30.34, 376.54 1.37 M286.66 104.77 C302.88 83.25, 324.55 61.13, 376.54 1.37 M292.31 104.37 C316.32 75.02, 345.79 38.55, 382.19 0.98 M292.31 104.37 C323.63 68.56, 356.31 32.36, 382.19 0.98 M297.29 104.73 C320.84 71.53, 347.82 45.04, 387.17 1.34 M297.29 104.73 C318.07 80.98, 340.57 56.69, 387.17 1.34 M302.94 104.34 C340.43 58.72, 373.37 22.35, 392.16 1.7 M302.94 104.34 C335.95 68.36, 368.76 31.25, 392.16 1.7 M307.92 104.7 C331.79 81.22, 351.39 58.46, 397.8 1.3 M307.92 104.7 C327.06 81, 343.28 60.37, 397.8 1.3 M312.91 105.06 C337.4 72.39, 366.79 44.26, 402.79 1.66 M312.91 105.06 C347.58 66.69, 385.09 24.83, 402.79 1.66 M318.55 104.66 C349.43 69.8, 372.31 38.73, 408.43 1.27 M318.55 104.66 C352.16 68.19, 384.18 31.35, 408.43 1.27 M323.54 105.02 C340.3 82.28, 360.85 61.28, 413.42 1.63 M323.54 105.02 C348.24 74.74, 378.37 41.64, 413.42 1.63 M329.18 104.63 C361.6 71.72, 391.86 31.84, 419.06 1.23 M329.18 104.63 C363.64 62.88, 398.96 22.91, 419.06 1.23 M334.17 104.99 C368.19 61.47, 402.71 25.87, 424.05 1.59 M334.17 104.99 C363.82 69.85, 395.91 32.93, 424.05 1.59 M339.81 104.59 C369.85 65.86, 399.41 31.71, 429.69 1.2 M339.81 104.59 C368.08 72.93, 395.72 39.83, 429.69 1.2 M344.8 104.95 C379.67 68.66, 408.23 32.98, 434.68 1.56 M344.8 104.95 C369.41 73.82, 399.16 38.97, 434.68 1.56 M350.44 104.56 C380.61 69.83, 405.5 39.19, 440.33 1.16 M350.44 104.56 C370.22 82.39, 390.86 59.72, 440.33 1.16 M355.43 104.92 C382.65 79.48, 405.86 54.32, 445.31 1.53 M355.43 104.92 C375.84 82.07, 400.48 55.98, 445.31 1.53 M361.08 104.53 C393.62 68.85, 424.33 34.26, 450.96 1.13 M361.08 104.53 C384.7 73.57, 412.86 43.04, 450.96 1.13 M366.06 104.89 C399.98 65.74, 432.32 23.64, 455.94 1.49 M366.06 104.89 C396.51 69.34, 425.92 37.78, 455.94 1.49 M371.71 104.49 C403.49 66.71, 439.37 28.38, 461.59 1.1 M371.71 104.49 C390.8 80.96, 411.04 61.15, 461.59 1.1 M376.69 104.85 C416.07 61.83, 449.31 21.18, 466.57 1.46 M376.69 104.85 C406.26 65.25, 440.16 29.38, 466.57 1.46 M382.34 104.46 C400.59 80.34, 422.16 54.31, 472.22 1.06 M382.34 104.46 C415.53 68.1, 446.51 28.99, 472.22 1.06 M387.32 104.82 C403.87 79.25, 426.35 57.46, 477.2 1.42 M387.32 104.82 C419.28 70.71, 450.37 33.38, 477.2 1.42 M392.97 104.42 C417.32 69.95, 448.36 42.5, 482.19 1.78 M392.97 104.42 C423.91 64.48, 456.4 27.13, 482.19 1.78 M397.95 104.78 C432.15 72.7, 458.11 34.7, 487.83 1.39 M397.95 104.78 C422.62 77.75, 441.75 50.49, 487.83 1.39 M402.94 105.14 C436.36 63.52, 475.13 28.49, 492.82 1.75 M402.94 105.14 C439.62 66.88, 475.57 25.57, 492.82 1.75 M408.58 104.75 C440.22 69.36, 479.22 24.2, 498.46 1.35 M408.58 104.75 C430.55 79.71, 453.85 52.97, 498.46 1.35 M413.57 105.11 C447.38 65.4, 483.75 21.09, 503.45 1.71 M413.57 105.11 C440.76 78.31, 462.03 48.18, 503.45 1.71 M419.21 104.71 C441.12 76.32, 469.33 46.31, 509.09 1.32 M419.21 104.71 C444.35 74.94, 468.39 45.8, 509.09 1.32 M424.2 105.07 C443.22 81.17, 459.81 61.62, 514.08 1.68 M424.2 105.07 C454.62 68.93, 486.06 36.16, 514.08 1.68 M429.84 104.68 C452.68 80.52, 472.21 54.46, 519.72 1.28 M429.84 104.68 C458.96 71.34, 485.93 38.43, 519.72 1.28 M434.83 105.04 C466.87 72.15, 493.13 45.54, 524.71 1.64 M434.83 105.04 C451.33 80.98, 470.78 58.4, 524.71 1.64 M440.47 104.64 C469.84 67.78, 500.11 35.46, 530.35 1.25 M440.47 104.64 C465.88 72.75, 492.75 43.25, 530.35 1.25 M445.46 105 C469.7 83.91, 486.36 51.46, 535.34 1.61 M445.46 105 C465.01 82.47, 483.35 60.17, 535.34 1.61 M451.1 104.61 C475.08 81.02, 494.2 64.47, 540.98 1.21 M451.1 104.61 C480.26 72.71, 513.91 36.62, 540.98 1.21 M456.09 104.97 C477.6 81.07, 502.92 55.21, 545.97 1.57 M456.09 104.97 C483.55 71.36, 510.91 38.67, 545.97 1.57 M461.73 104.58 C487.51 75.73, 519.52 41, 551.61 1.18 M461.73 104.58 C495.99 65.38, 528.37 27.17, 551.61 1.18 M466.72 104.94 C503.67 70.03, 537.6 26.9, 555.94 2.29 M466.72 104.94 C485.62 80.18, 509.42 55.81, 555.94 2.29 M472.36 104.54 C502.77 65.96, 540.05 24.27, 559.62 4.16 M472.36 104.54 C499.52 75.32, 524.04 45.83, 559.62 4.16 M477.35 104.9 C505.3 68.66, 541.37 30.16, 563.29 6.03 M477.35 104.9 C508.65 72.79, 536.95 40.3, 563.29 6.03 M482.99 104.51 C517.59 65.54, 548.23 28.74, 567.62 7.15 M482.99 104.51 C502.48 80.74, 523.06 57.25, 567.62 7.15 M487.98 104.87 C506.07 83.28, 530.11 57.19, 569.99 10.53 M487.98 104.87 C510.62 74.9, 536.34 43.75, 569.99 10.53 M492.97 105.23 C510.66 79.06, 535.05 58.33, 571.69 14.66 M492.97 105.23 C514.18 81.63, 531.63 54, 571.69 14.66 M498.61 104.83 C512.52 85.29, 525.4 72.86, 571.43 21.06 M498.61 104.83 C520.55 80.03, 544.67 52.16, 571.43 21.06 M503.6 105.19 C531.75 73.69, 554.79 41.95, 571.83 26.7 M503.6 105.19 C522.3 81.27, 543.11 61.76, 571.83 26.7 M509.24 104.8 C519.72 87.25, 537.93 77.61, 572.22 32.35 M509.24 104.8 C532.78 74.49, 557.65 48.34, 572.22 32.35 M514.23 105.16 C527.37 89.72, 541.4 73.02, 571.96 38.74 M514.23 105.16 C531.82 81.66, 554.61 60, 571.96 38.74 M519.87 104.76 C533.18 94.96, 542.23 80.04, 572.36 44.39 M519.87 104.76 C535.88 87.18, 551.04 70.9, 572.36 44.39 M524.86 105.12 C542.6 88.46, 554.03 64.77, 572.09 50.78 M524.86 105.12 C539.14 88.64, 554.59 70.22, 572.09 50.78 M530.5 104.73 C543.02 94.97, 551.49 77.97, 572.49 56.43 M530.5 104.73 C541.97 89.7, 553.68 78.89, 572.49 56.43 M535.49 105.09 C544.31 89.44, 560.94 81.86, 572.23 62.82 M535.49 105.09 C544.95 94.14, 558.45 79.46, 572.23 62.82 M541.13 104.69 C553.06 88.19, 567.79 77.12, 572.62 68.47 M541.13 104.69 C548.13 98.94, 557.52 89.46, 572.62 68.47 M547.43 103.54 C557.03 92.95, 562.57 85.97, 573.02 74.11 M547.43 103.54 C554.85 94.69, 561.72 84.53, 573.02 74.11 M553.73 102.4 C559.02 94.56, 561.76 95.32, 572.75 80.51 M553.73 102.4 C560.9 95.54, 566.44 83.8, 572.75 80.51 M559.37 102 C567.99 93.05, 566.99 85.92, 574.46 84.64 M559.37 102 C565.62 97.98, 571.58 89.22, 574.46 84.64" stroke="#fab005" stroke-width="0.5" fill="none"></path><path d="M25.75 0 M25.75 0 C177.46 -2.47, 330.67 0.35, 547.25 0 M25.75 0 C158.38 -3.27, 290.8 -3.44, 547.25 0 M547.25 0 C565.93 2.05, 569.5 10.66, 573 25.75 M547.25 0 C567.34 2.46, 576.05 7.05, 573 25.75 M573 25.75 C568.66 45.36, 569.75 65.68, 573 77.25 M573 25.75 C572.55 36.36, 572.61 46.88, 573 77.25 M573 77.25 C575.46 90.64, 568.24 103.85, 547.25 103 M573 77.25 C574.27 97.05, 564.39 104.69, 547.25 103 M547.25 103 C382.72 105.31, 215.73 103.48, 25.75 103 M547.25 103 C371.77 99.71, 196.71 99.1, 25.75 103 M25.75 103 C5.94 102.64, -1.77 92.2, 0 77.25 M25.75 103 C12.16 99.17, 1.76 90.39, 0 77.25 M0 77.25 C-0.83 65.98, -3.66 50.5, 0 25.75 M0 77.25 C-1.06 60.27, -1.48 46.01, 0 25.75 M0 25.75 C1.53 10.74, 7.7 -3.22, 25.75 0 M0 25.75 C-2.58 10.33, 4.11 2.92, 25.75 0" stroke="#000000" stroke-width="1" fill="none"></path></g><g transform="translate(177.72500610351562 641.663795279015) rotate(0 138.77499389648438 13)"><text x="138.77499389648438" y="0" font-family="Virgil, Segoe UI Emoji" font-size="20px" fill="#000000" text-anchor="middle" style="white-space: pre;" direction="ltr" dominant-baseline="text-before-edge">Interactive comment section</text></g><g stroke-linecap="round" transform="translate(10 10) rotate(0 306.5 399.5)"><path d="M32 0 M32 0 C182.65 1.63, 332.99 1.53, 581 0 M581 0 C600.89 0.13, 612.58 8.82, 613 32 M613 32 C610.67 213.34, 610.8 393.74, 613 767 M613 767 C612.65 789.79, 600.35 797.11, 581 799 M581 799 C466.67 798.93, 352.74 798.72, 32 799 M32 799 C10.58 799.67, 1.17 788.4, 0 767 M0 767 C2.29 606.65, 2 446.36, 0 32 M0 32 C1.87 8.77, 9.09 -1.74, 32 0" stroke="#000000" stroke-width="1.5" fill="none" stroke-dasharray="8 9"></path></g><g transform="translate(196.0875015258789 62.590909090909065) rotate(0 120.4124984741211 26)"><text x="120.4124984741211" y="0" font-family="Virgil, Segoe UI Emoji" font-size="20px" fill="#000000" text-anchor="middle" style="white-space: pre;" direction="ltr" dominant-baseline="text-before-edge">Interactive Header</text><text x="120.4124984741211" y="26" font-family="Virgil, Segoe UI Emoji" font-size="20px" fill="#000000" text-anchor="middle" style="white-space: pre;" direction="ltr" dominant-baseline="text-before-edge">(e.g. language switch, ...)</text></g><g stroke-linecap="round" transform="translate(30 158.30917036678022) rotate(0 286.5 213.31818181818176)"><path d="M7.86 8.16 C7.86 8.16, 7.86 8.16, 7.86 8.16 M7.86 8.16 C7.86 8.16, 7.86 8.16, 7.86 8.16 M3.66 19.09 C9.94 15.95, 13.03 6.71, 18.1 2.48 M3.66 19.09 C8.67 16.08, 11.44 12.77, 18.1 2.48 M2.75 26.24 C11.64 14.45, 20.34 7.19, 24.4 1.33 M2.75 26.24 C10.12 19.42, 14.08 10.64, 24.4 1.33 M1.83 33.39 C5.65 30.06, 15.91 21.18, 30.7 0.18 M1.83 33.39 C11.75 23.72, 21.58 13.25, 30.7 0.18 M1.57 39.79 C9.22 31.1, 21.07 15.26, 34.37 2.05 M1.57 39.79 C12.52 24.07, 26.71 11.08, 34.37 2.05 M1.96 45.43 C13.28 33.99, 21.76 28.22, 39.36 2.41 M1.96 45.43 C10.3 33.32, 21.9 22.17, 39.36 2.41 M1.7 51.83 C17.11 35.12, 31.89 19.52, 45 2.02 M1.7 51.83 C12.62 37.98, 25.66 26.04, 45 2.02 M1.44 58.23 C16.2 49.77, 22.66 38.39, 49.99 2.38 M1.44 58.23 C17.3 39.59, 34.89 16.29, 49.99 2.38 M1.83 63.87 C17.4 43.34, 32.66 27.81, 55.63 1.98 M1.83 63.87 C12.66 52.18, 26.01 38.39, 55.63 1.98 M1.57 70.27 C21.1 53.14, 35.39 29.77, 60.62 2.34 M1.57 70.27 C14.25 56.51, 24.32 43.82, 60.62 2.34 M1.97 75.91 C21.04 45.45, 43.77 25.18, 66.26 1.95 M1.97 75.91 C24.29 50.43, 43.19 24.05, 66.26 1.95 M1.71 82.31 C17.03 62.87, 29.89 47.26, 71.25 2.31 M1.71 82.31 C20.84 59.78, 37.76 42.54, 71.25 2.31 M1.44 88.71 C19.56 69.05, 38.81 48.36, 76.89 1.91 M1.44 88.71 C30.49 58.13, 55.25 25.28, 76.89 1.91 M1.84 94.35 C18.51 68.99, 35.17 53, 81.88 2.27 M1.84 94.35 C17.6 75.12, 32.99 52.99, 81.88 2.27 M1.58 100.75 C25.17 65.16, 57.32 37.94, 87.52 1.88 M1.58 100.75 C28.18 69.26, 53.62 34.9, 87.52 1.88 M1.97 106.39 C28.23 71.37, 55.45 42.4, 92.51 2.24 M1.97 106.39 C22.67 82.82, 44.73 54.54, 92.51 2.24 M1.71 112.79 C18.98 89.18, 42.55 65.35, 98.15 1.85 M1.71 112.79 C22.61 86.87, 47.53 57.35, 98.15 1.85 M1.45 119.19 C27.49 85.73, 56.77 53.5, 103.14 2.21 M1.45 119.19 C42.99 74.43, 79.54 27.85, 103.14 2.21 M1.84 124.83 C26.26 103.07, 44.34 76.1, 108.78 1.81 M1.84 124.83 C37.1 83.63, 72.01 44.36, 108.78 1.81 M1.58 131.23 C36.45 87.77, 73.39 51.12, 113.77 2.17 M1.58 131.23 C34.32 91.27, 69.08 48.66, 113.77 2.17 M1.98 136.87 C46.48 91.11, 81.99 39.72, 119.41 1.78 M1.98 136.87 C35.59 95.78, 68.57 55.98, 119.41 1.78 M1.72 143.27 C28.07 110.67, 56.74 81.96, 124.4 2.14 M1.72 143.27 C50.17 93.95, 93.02 43.59, 124.4 2.14 M1.45 149.67 C48.68 96.84, 87.96 53.68, 130.04 1.74 M1.45 149.67 C31.41 110.98, 65.29 73.15, 130.04 1.74 M1.85 155.31 C44.42 110.89, 81.55 61.82, 135.03 2.1 M1.85 155.31 C49.71 100.69, 96.97 48.91, 135.03 2.1 M1.59 161.71 C44.9 115.19, 84.65 65.92, 140.67 1.71 M1.59 161.71 C36.94 122.21, 73.41 82.17, 140.67 1.71 M1.98 167.35 C56.26 102.46, 109.95 43.17, 145.66 2.07 M1.98 167.35 C51.47 112.3, 101.03 56.9, 145.66 2.07 M1.72 173.75 C56.49 111.87, 118.88 41.43, 150.65 2.43 M1.72 173.75 C51.15 113.03, 101.53 58.06, 150.65 2.43 M1.46 180.14 C56.71 122.37, 106.96 62.1, 156.29 2.03 M1.46 180.14 C41.55 132.14, 80.23 88.84, 156.29 2.03 M1.85 185.79 C47.56 129.05, 97.27 75.85, 161.28 2.39 M1.85 185.79 C42.13 142.79, 80.69 96.69, 161.28 2.39 M1.59 192.19 C63.06 123.41, 122.58 52.91, 166.92 2 M1.59 192.19 C46.92 140.66, 94.17 86.32, 166.92 2 M1.99 197.83 C66.06 127.44, 128.95 52.82, 171.91 2.36 M1.99 197.83 C60.57 126.38, 121.58 59.66, 171.91 2.36 M1.72 204.23 C64.85 133.81, 129.54 54.3, 177.55 1.96 M1.72 204.23 C44.85 154.2, 89.48 101.28, 177.55 1.96 M1.46 210.62 C48.41 156.76, 97.68 99.41, 182.54 2.32 M1.46 210.62 C58.06 141.43, 119.82 72.65, 182.54 2.32 M1.86 216.27 C55.84 153.54, 113.08 86.08, 188.18 1.93 M1.86 216.27 C51.41 155.68, 101.52 98.96, 188.18 1.93 M1.6 222.66 C60.23 153.67, 119.41 85.35, 193.17 2.29 M1.6 222.66 C47.97 171.82, 96.38 115.72, 193.17 2.29 M1.99 228.31 C42.66 177.55, 85.09 133.62, 198.81 1.9 M1.99 228.31 C62.56 158.27, 120.37 91.2, 198.81 1.9 M1.73 234.71 C79.95 152.86, 150.23 68.62, 203.8 2.26 M1.73 234.71 C62.55 160.71, 124.83 91.4, 203.8 2.26 M1.47 241.1 C55.16 180.67, 105.65 123.05, 209.44 1.86 M1.47 241.1 C75.16 156.34, 149.27 69.58, 209.44 1.86 M1.86 246.75 C63.56 169.58, 125.27 93.21, 214.43 2.22 M1.86 246.75 C65.78 171.89, 129.88 101.39, 214.43 2.22 M1.6 253.14 C63.12 184.66, 126.97 113.67, 220.07 1.83 M1.6 253.14 C73.62 173.29, 144.21 90.82, 220.07 1.83 M2 258.79 C84 157.24, 174.75 55.59, 225.06 2.19 M2 258.79 C78.46 168.02, 156.49 78.6, 225.06 2.19 M1.73 265.19 C54.02 207.29, 102.79 151.63, 230.7 1.79 M1.73 265.19 C79.91 173.36, 160.54 82.18, 230.7 1.79 M1.47 271.58 C65.29 200.64, 130.48 125.91, 235.69 2.15 M1.47 271.58 C84.94 176.73, 164.64 82.41, 235.69 2.15 M1.87 277.23 C72.03 194.87, 145.38 111, 241.33 1.76 M1.87 277.23 C52.24 221.75, 102 163.57, 241.33 1.76 M1.61 283.62 C53.78 225.18, 100.17 169.32, 246.32 2.12 M1.61 283.62 C89.55 185.7, 176.85 84, 246.32 2.12 M2 289.27 C53.62 224.46, 107.42 160.84, 251.96 1.72 M2 289.27 C93.99 182.24, 188.28 74.63, 251.96 1.72 M1.74 295.66 C55.77 233.24, 110.09 174.37, 256.95 2.08 M1.74 295.66 C100.22 181.93, 195.42 71.23, 256.95 2.08 M1.48 302.06 C103.81 180.74, 206.19 61.47, 262.59 1.69 M1.48 302.06 C95.74 191.35, 191.59 81.19, 262.59 1.69 M1.87 307.71 C83.61 208.17, 169.37 114.63, 267.58 2.05 M1.87 307.71 C104.34 189.97, 209.9 68.45, 267.58 2.05 M1.61 314.1 C88.68 214.28, 176.63 112.19, 272.56 2.41 M1.61 314.1 C99.57 206.55, 196.72 97.27, 272.56 2.41 M2.01 319.75 C91.67 212.27, 185.11 105.8, 278.21 2.01 M2.01 319.75 C94.52 213.35, 185.06 110.71, 278.21 2.01 M1.74 326.14 C110.51 203.98, 219.08 81.22, 283.19 2.37 M1.74 326.14 C104.74 205.83, 209.51 84.76, 283.19 2.37 M1.48 332.54 C84.64 239.38, 167.83 143.33, 288.84 1.98 M1.48 332.54 C77.62 239.74, 157.59 150.83, 288.84 1.98 M1.88 338.19 C74.33 253, 147.19 170.9, 293.82 2.34 M1.88 338.19 C97.1 230.44, 191.48 123.04, 293.82 2.34 M1.62 344.58 C106.78 228.74, 209.3 108.9, 299.47 1.94 M1.62 344.58 C88.13 249.67, 171.28 154.8, 299.47 1.94 M2.01 350.23 C91.34 251.42, 178.38 152.14, 304.45 2.3 M2.01 350.23 C106.34 228.1, 212.85 105.23, 304.45 2.3 M1.75 356.62 C100.36 248.81, 196.28 134.32, 310.1 1.91 M1.75 356.62 C113.37 231.76, 222.15 106.61, 310.1 1.91 M1.49 363.02 C115.38 230.51, 230.41 100.37, 315.08 2.27 M1.49 363.02 C92.07 263.9, 180.74 163.63, 315.08 2.27 M1.88 368.66 C117.28 235.57, 234.16 99.76, 320.73 1.88 M1.88 368.66 C87.19 267.69, 172.9 168.62, 320.73 1.88 M1.62 375.06 C71.06 290.95, 140.8 210.72, 325.71 2.24 M1.62 375.06 C126.34 235.44, 248.58 93.53, 325.71 2.24 M2.02 380.71 C92.73 274.87, 179.42 172.43, 331.36 1.84 M2.02 380.71 C114.89 250.69, 229.6 118.34, 331.36 1.84 M1.75 387.1 C96.37 276.37, 193.69 162.02, 336.34 2.2 M1.75 387.1 C128.17 242.37, 254.27 97.48, 336.34 2.2 M0.18 395.01 C133.36 246.24, 263.38 94.86, 341.99 1.81 M0.18 395.01 C93.88 286.93, 189.82 177.46, 341.99 1.81 M1.23 399.9 C109.05 276.55, 218.01 150.86, 346.97 2.17 M1.23 399.9 C96.49 290, 191.13 182.83, 346.97 2.17 M1.63 405.54 C91.51 301.55, 183.6 198.86, 352.62 1.77 M1.63 405.54 C112.91 277.99, 223.97 151.23, 352.62 1.77 M3.33 409.68 C107.69 286.68, 216.07 160.43, 357.6 2.13 M3.33 409.68 C114.17 284.04, 223.24 158.7, 357.6 2.13 M5.69 413.05 C90.27 318.01, 169.83 223.48, 363.25 1.74 M5.69 413.05 C97.4 308.99, 188.16 206.28, 363.25 1.74 M7.4 417.19 C140.09 260.79, 275.88 107.09, 368.23 2.1 M7.4 417.19 C82.45 329.31, 156.14 244.54, 368.23 2.1 M9.76 420.57 C96.98 325.76, 178.49 231.14, 373.88 1.7 M9.76 420.57 C103.83 311.17, 199.31 200.35, 373.88 1.7 M13.44 422.44 C133.32 282.21, 252.24 146.37, 378.86 2.06 M13.44 422.44 C134.14 287.85, 253.38 150.64, 378.86 2.06 M17.11 424.31 C154.84 260.66, 296.97 99.29, 383.85 2.42 M17.11 424.31 C112.45 307.37, 210.66 194.43, 383.85 2.42 M20.13 426.93 C109.5 326.11, 197.69 223.31, 389.49 2.03 M20.13 426.93 C135.77 296.96, 248.06 168.45, 389.49 2.03 M25.12 427.29 C170.1 259.68, 316.12 88.38, 394.48 2.39 M25.12 427.29 C156.77 278.03, 289.09 126.54, 394.48 2.39 M30.11 427.65 C148.3 289.65, 264.56 154.38, 400.12 1.99 M30.11 427.65 C112.58 334.23, 195.59 236.54, 400.12 1.99 M34.44 428.77 C174.23 267.18, 316.94 105.72, 405.11 2.35 M34.44 428.77 C172.51 275.73, 308.02 119.33, 405.11 2.35 M39.43 429.13 C121.47 335.74, 202.54 241.31, 410.75 1.96 M39.43 429.13 C130.55 327.62, 219.75 223.62, 410.75 1.96 M45.07 428.73 C131.87 331.26, 213.35 235.73, 415.74 2.32 M45.07 428.73 C154.87 299.02, 266.29 169.79, 415.74 2.32 M50.06 429.09 C162.87 296.87, 275.86 164.87, 421.38 1.93 M50.06 429.09 C181.26 276.5, 313.97 124.26, 421.38 1.93 M55.7 428.7 C133.06 336.96, 210.82 246.89, 426.37 2.29 M55.7 428.7 C175.57 286.18, 298.37 144.9, 426.37 2.29 M60.69 429.06 C150.47 327.73, 241.81 224.86, 432.01 1.89 M60.69 429.06 C147.58 326.26, 236.28 223.02, 432.01 1.89 M66.33 428.66 C147.04 334.67, 227.41 243.38, 437 2.25 M66.33 428.66 C198.54 276.13, 334.09 119.5, 437 2.25 M71.32 429.02 C207.83 270.86, 341.68 116.03, 442.64 1.86 M71.32 429.02 C153.48 334.7, 232.77 242.79, 442.64 1.86 M76.96 428.63 C191.41 302.52, 301.76 174.25, 447.63 2.22 M76.96 428.63 C185.75 302.53, 295.05 178.04, 447.63 2.22 M81.95 428.99 C201.5 294.13, 317.18 159.88, 453.27 1.82 M81.95 428.99 C179.62 311.63, 280.5 195.13, 453.27 1.82 M87.59 428.59 C206.7 292.75, 329.05 153.55, 458.26 2.18 M87.59 428.59 C216.58 279.29, 347.86 129.59, 458.26 2.18 M92.58 428.95 C172.08 342.47, 251.81 250.18, 463.9 1.79 M92.58 428.95 C185.41 323.8, 279.11 217.46, 463.9 1.79 M98.22 428.56 C221.47 282.6, 348.72 140.64, 468.89 2.15 M98.22 428.56 C224.97 284, 352.77 138.78, 468.89 2.15 M103.21 428.92 C209.39 308.76, 310.39 191.53, 474.53 1.75 M103.21 428.92 C197.69 315.83, 292.76 205.42, 474.53 1.75 M108.85 428.52 C244.47 268.76, 378.57 113.5, 479.52 2.11 M108.85 428.52 C194.96 334.47, 278.43 238.52, 479.52 2.11 M113.84 428.88 C193.63 338.54, 273.33 244.39, 485.17 1.72 M113.84 428.88 C212.05 318.98, 307.73 208.61, 485.17 1.72 M119.48 428.49 C215.04 321.99, 303.74 215.12, 490.15 2.08 M119.48 428.49 C238.02 293.16, 354.88 158.72, 490.15 2.08 M124.47 428.85 C209.14 329.74, 292.98 232.83, 495.8 1.68 M124.47 428.85 C225.64 312.75, 328.32 193.86, 495.8 1.68 M130.11 428.45 C277.9 261.12, 425.72 92.65, 500.78 2.04 M130.11 428.45 C241.25 302.79, 351.18 175.51, 500.78 2.04 M135.1 428.82 C282.07 259.23, 430.64 89.27, 505.77 2.4 M135.1 428.82 C279.97 261.9, 425.79 95.46, 505.77 2.4 M140.74 428.42 C221.43 333.5, 304.25 237.8, 511.41 2.01 M140.74 428.42 C288.1 260.62, 436.05 91.44, 511.41 2.01 M145.73 428.78 C265.45 298.42, 378.15 165.32, 516.4 2.37 M145.73 428.78 C277.22 280.7, 405.57 132.91, 516.4 2.37 M151.37 428.39 C269.03 289.57, 386.69 152.07, 522.04 1.98 M151.37 428.39 C234.44 335.5, 317.18 240.24, 522.04 1.98 M156.36 428.75 C240.49 326.07, 325.51 227.53, 527.03 2.34 M156.36 428.75 C286.56 282.28, 413.82 134.99, 527.03 2.34 M161.34 429.11 C270.86 306.12, 377.96 182.29, 532.67 1.94 M161.34 429.11 C283.51 288.33, 403.06 150.32, 532.67 1.94 M166.99 428.71 C290.47 290.1, 409.99 153.32, 537.66 2.3 M166.99 428.71 C255.94 323.31, 345.37 219.82, 537.66 2.3 M171.97 429.07 C287.07 302.67, 396.94 171.62, 543.3 1.91 M171.97 429.07 C255.55 338.01, 336.74 245.48, 543.3 1.91 M177.62 428.68 C265.27 327.25, 351.42 227.69, 548.29 2.27 M177.62 428.68 C312.84 271.05, 448.9 114.65, 548.29 2.27 M182.6 429.04 C306.55 287.77, 428.19 146.2, 552.62 3.38 M182.6 429.04 C323.91 265.93, 463.25 104.77, 552.62 3.38 M188.25 428.64 C302.77 297.03, 418.04 162.83, 557.61 3.74 M188.25 428.64 C294.25 304.28, 400.45 181.7, 557.61 3.74 M193.23 429 C319.28 282.06, 446.06 136.84, 560.63 6.37 M193.23 429 C285.38 329.72, 372.72 227.76, 560.63 6.37 M198.88 428.61 C337.56 271.85, 474.44 112.62, 564.3 8.23 M198.88 428.61 C294.18 319.4, 386.52 213.78, 564.3 8.23 M203.86 428.97 C306.23 306.51, 408.3 185.84, 567.98 10.1 M203.86 428.97 C349.04 264.05, 493.64 97.43, 567.98 10.1 M209.51 428.57 C344.96 276.74, 478.76 125.4, 569.68 14.24 M209.51 428.57 C335.62 281.04, 464.13 131.99, 569.68 14.24 M214.49 428.93 C324.54 306.43, 434.72 179.75, 571.39 18.37 M214.49 428.93 C287.88 346.33, 358.62 263, 571.39 18.37 M220.14 428.54 C322.69 311.87, 424.22 194.21, 572.44 23.26 M220.14 428.54 C347.29 282.11, 472.55 138.99, 572.44 23.26 M225.12 428.9 C342.61 296.48, 456.97 162.77, 572.83 28.9 M225.12 428.9 C354.67 282.65, 481.04 136.7, 572.83 28.9 M230.77 428.5 C313.61 331.81, 396.13 237, 574.54 33.04 M230.77 428.5 C321.19 322.76, 412.7 215.73, 574.54 33.04 M235.75 428.86 C335.66 313.73, 436.32 198.15, 574.28 39.43 M235.75 428.86 C358.55 285.81, 481.79 143.67, 574.28 39.43 M241.4 428.47 C314.97 340.92, 391.4 254.5, 574.67 45.08 M241.4 428.47 C364.4 286.95, 488.53 145.3, 574.67 45.08 M246.38 428.83 C346.97 314.77, 449.09 195.91, 574.41 51.48 M246.38 428.83 C320.19 346.09, 391.85 262.28, 574.41 51.48 M252.03 428.44 C355.97 304.6, 460.69 185.43, 574.15 57.87 M252.03 428.44 C379.68 280.02, 508.94 131.56, 574.15 57.87 M257.01 428.8 C346.61 326.07, 436.12 224.93, 574.55 63.52 M257.01 428.8 C362.84 309.62, 467.73 188.2, 574.55 63.52 M262.66 428.4 C364.87 313.85, 461.44 201.16, 574.28 69.91 M262.66 428.4 C368.57 303.24, 477.75 178.77, 574.28 69.91 M267.64 428.76 C358.61 322.39, 449.04 216.36, 574.68 75.56 M267.64 428.76 C345 340.24, 420.77 251.78, 574.68 75.56 M272.63 429.12 C351.81 333.53, 431.98 240.4, 574.42 81.95 M272.63 429.12 C358.15 332.87, 439.18 238.65, 574.42 81.95 M278.27 428.73 C353.42 344.1, 428.4 258.49, 574.16 88.35 M278.27 428.73 C357.76 334.11, 439.56 241.33, 574.16 88.35 M283.26 429.09 C384.54 315.79, 478.75 204.72, 574.55 94 M283.26 429.09 C367.26 333.06, 450.37 238.16, 574.55 94 M288.9 428.69 C352.24 355.71, 416.44 282.56, 574.29 100.39 M288.9 428.69 C370.62 337.36, 451.49 246.4, 574.29 100.39 M293.89 429.05 C393.69 310.88, 495.09 195.04, 574.68 106.04 M293.89 429.05 C396.57 310.98, 496.35 196.75, 574.68 106.04 M299.53 428.66 C374.97 342.14, 448.98 252.79, 574.42 112.43 M299.53 428.66 C378.81 333.9, 459.41 240.44, 574.42 112.43 M304.52 429.02 C385.53 337.51, 467.06 242.97, 574.16 118.83 M304.52 429.02 C390.81 325.35, 477.48 225.21, 574.16 118.83 M310.16 428.62 C381.7 345.15, 454.87 259.33, 574.56 124.48 M310.16 428.62 C387.34 334.23, 469.72 240.14, 574.56 124.48 M315.15 428.98 C413.32 321.05, 503.04 211.36, 574.29 130.87 M315.15 428.98 C386.14 348.51, 457.89 264.48, 574.29 130.87 M320.79 428.59 C389.79 348.92, 459.78 270.41, 574.69 136.52 M320.79 428.59 C388.23 356.35, 451.76 280.26, 574.69 136.52 M325.78 428.95 C393.16 349.1, 462.19 272.92, 574.43 142.91 M325.78 428.95 C416.89 322.63, 508.86 214.99, 574.43 142.91 M331.42 428.55 C402.76 346.29, 472.23 260.84, 574.17 149.31 M331.42 428.55 C395.19 354.75, 459.02 284.01, 574.17 149.31 M336.41 428.91 C395.41 364.03, 457.4 294.2, 574.56 154.95 M336.41 428.91 C388.51 366.96, 438.98 308.48, 574.56 154.95 M342.05 428.52 C428.64 323.07, 519.07 224.15, 574.3 161.35 M342.05 428.52 C428.38 325.88, 513.27 228.22, 574.3 161.35 M347.04 428.88 C434.43 328.77, 522.56 227.63, 574.69 167 M347.04 428.88 C412.86 355.74, 473.99 284.01, 574.69 167 M352.68 428.49 C432.01 339.85, 513.5 252.01, 574.43 173.39 M352.68 428.49 C403.2 371.8, 451.13 314.85, 574.43 173.39 M357.67 428.85 C418.05 362.35, 478.02 292.01, 574.17 179.79 M357.67 428.85 C415.03 362.9, 475.99 291.84, 574.17 179.79 M363.31 428.45 C410.92 371.83, 456.87 317.65, 574.57 185.43 M363.31 428.45 C446.2 332.01, 530.67 236.02, 574.57 185.43 M368.3 428.81 C409.75 380.99, 452.86 331.43, 574.3 191.83 M368.3 428.81 C410.84 376.05, 459.6 322.03, 574.3 191.83 M373.94 428.42 C452.97 341.33, 526.22 249.87, 574.7 197.48 M373.94 428.42 C425.8 372.54, 473.8 315.65, 574.7 197.48 M378.93 428.78 C449.85 353.38, 515.72 273.56, 574.44 203.87 M378.93 428.78 C447.49 350.46, 516.82 272.98, 574.44 203.87 M383.92 429.14 C430.94 380.44, 478.76 325.04, 574.18 210.27 M383.92 429.14 C430.79 375.68, 480.74 321.11, 574.18 210.27 M389.56 428.74 C451.32 350.33, 515.28 279.39, 574.57 215.91 M389.56 428.74 C456.65 349.85, 526.77 270.84, 574.57 215.91 M394.55 429.1 C467.74 351.87, 534.66 271.68, 574.31 222.31 M394.55 429.1 C446.16 370.23, 498.46 310.14, 574.31 222.31 M400.19 428.71 C467.22 348.9, 537.53 268.18, 574.7 227.95 M400.19 428.71 C445.66 374.08, 491.83 325.03, 574.7 227.95 M405.18 429.07 C468.99 359.44, 527.86 286.94, 574.44 234.35 M405.18 429.07 C473.67 352.64, 536.77 277.67, 574.44 234.35 M410.82 428.67 C458.62 370.47, 509.49 315.46, 574.18 240.75 M410.82 428.67 C447.52 385.94, 481.81 343.74, 574.18 240.75 M415.81 429.03 C473.4 358.54, 535 294.55, 574.58 246.39 M415.81 429.03 C462.42 369.98, 512.82 312.81, 574.58 246.39 M421.45 428.64 C454.64 393.34, 487.11 353.5, 574.31 252.79 M421.45 428.64 C476.7 367.64, 531.8 304.25, 574.31 252.79 M426.44 429 C479.33 374.35, 524.43 315.09, 574.71 258.43 M426.44 429 C460.3 395.16, 490.2 356.91, 574.71 258.43 M432.08 428.6 C486.81 372.63, 538.92 313.08, 574.45 264.83 M432.08 428.6 C464.44 394.71, 494.87 359.09, 574.45 264.83 M437.07 428.96 C469.13 390.79, 498.97 357.54, 574.19 271.23 M437.07 428.96 C491.61 367.42, 546.33 304.58, 574.19 271.23 M442.71 428.57 C480.55 389.51, 514.45 345.7, 574.58 276.87 M442.71 428.57 C494.89 371.01, 543.9 311.12, 574.58 276.87 M447.7 428.93 C493.47 375.79, 538 316.4, 574.32 283.27 M447.7 428.93 C484.15 389.07, 521.07 345.02, 574.32 283.27 M453.34 428.53 C495.21 382.93, 528.2 337.35, 574.71 288.91 M453.34 428.53 C492.46 380.28, 537.66 333.68, 574.71 288.91 M458.33 428.9 C497 386.28, 531.07 348.58, 574.45 295.31 M458.33 428.9 C498.25 381.01, 540.09 334.2, 574.45 295.31 M463.97 428.5 C493.24 396.15, 514.67 371.65, 574.19 301.71 M463.97 428.5 C487.78 400.6, 512.27 374.82, 574.19 301.71 M468.96 428.86 C505.18 393.44, 540.25 347.71, 574.59 307.35 M468.96 428.86 C502.9 388.9, 539.7 344.2, 574.59 307.35 M474.6 428.47 C515.48 384.2, 548.69 343.58, 574.32 313.75 M474.6 428.47 C511.71 384.96, 550.12 338.9, 574.32 313.75 M479.59 428.83 C510.96 388.39, 546.96 355.24, 574.72 319.39 M479.59 428.83 C517.27 383.55, 555.68 340.4, 574.72 319.39 M485.23 428.43 C506.83 403.2, 531.1 374.44, 574.46 325.79 M485.23 428.43 C511.93 403.3, 536.06 373.09, 574.46 325.79 M490.22 428.79 C516.24 401.11, 540.43 372.16, 574.2 332.19 M490.22 428.79 C511.95 408.5, 530.07 384.6, 574.2 332.19 M495.86 428.4 C513.07 407.31, 535.86 389.56, 574.59 337.83 M495.86 428.4 C529.8 393.15, 557.69 354.97, 574.59 337.83 M500.85 428.76 C517.65 411.64, 535.57 387.72, 574.33 344.23 M500.85 428.76 C520.91 404.88, 539.68 386.32, 574.33 344.23 M505.84 429.12 C531.67 400.42, 555.94 370.12, 574.07 350.63 M505.84 429.12 C526.82 404.17, 551.51 378.32, 574.07 350.63 M511.48 428.72 C531.44 406.12, 549.86 391.13, 574.46 356.27 M511.48 428.72 C532.02 405.35, 552.96 382.01, 574.46 356.27 M516.47 429.08 C534.96 405.27, 558.82 375.63, 574.2 362.67 M516.47 429.08 C529.25 411.74, 545.32 395.6, 574.2 362.67 M522.11 428.69 C535.53 411.3, 544.26 400.45, 574.59 368.31 M522.11 428.69 C531.55 414.57, 544.58 403.34, 574.59 368.31 M527.1 429.05 C541.4 412.39, 562.27 393.52, 574.33 374.71 M527.1 429.05 C541.86 412.53, 555.5 400.87, 574.33 374.71 M532.74 428.65 C546.01 418.92, 551.17 403.53, 574.07 381.11 M532.74 428.65 C543.01 416.55, 553.3 405.6, 574.07 381.11 M537.73 429.01 C549.75 408.85, 569.91 394.03, 574.47 386.75 M537.73 429.01 C551.38 413.21, 561.94 401.93, 574.47 386.75 M543.37 428.62 C550.33 419.87, 559.88 410.19, 574.21 393.15 M543.37 428.62 C552.04 417.22, 562.48 407.62, 574.21 393.15 M549.67 427.47 C555.19 419.43, 564.17 404.76, 575.91 397.28 M549.67 427.47 C555.76 422.62, 560.58 412.07, 575.91 397.28 M556.62 425.57 C557.65 422.61, 561.01 413.45, 571.06 408.96 M556.62 425.57 C560.51 421.13, 563.58 418.75, 571.06 408.96" stroke="#ced4da" stroke-width="0.5" fill="none"></path><path d="M32 0 M32 0 C191.45 -2.31, 351.49 -0.59, 541 0 M32 0 C140.89 0.64, 247.71 0.13, 541 0 M541 0 C564.17 0.25, 571.47 12.3, 573 32 M541 0 C559.23 3.03, 569.74 10.84, 573 32 M573 32 C574.04 165.61, 577.6 296.98, 573 394.64 M573 32 C571.04 131.53, 570.42 231.79, 573 394.64 M573 394.64 C574.76 412.05, 561.25 423.83, 541 426.64 M573 394.64 C573.2 419.91, 558.45 424.68, 541 426.64 M541 426.64 C370.33 429.49, 201.31 427.39, 32 426.64 M541 426.64 C340.64 427.36, 141.74 428.58, 32 426.64 M32 426.64 C13.75 429.79, -3.63 411.97, 0 394.64 M32 426.64 C6.18 429.72, -4.21 418.96, 0 394.64 M0 394.64 C0.12 308.82, 0.31 223.05, 0 32 M0 394.64 C-2.86 259.79, -3.08 122.54, 0 32 M0 32 C2.21 7.07, 9.75 -2.92, 32 0 M0 32 C3.88 7.51, 9.41 -2.93, 32 0" stroke="#000000" stroke-width="1" fill="none"></path></g><g transform="translate(211.1500015258789 345.627352184962) rotate(0 105.3499984741211 26)"><text x="105.3499984741211" y="0" font-family="Virgil, Segoe UI Emoji" font-size="20px" fill="#000000" text-anchor="middle" style="white-space: pre;" direction="ltr" dominant-baseline="text-before-edge">Static Content</text><text x="105.3499984741211" y="26" font-family="Virgil, Segoe UI Emoji" font-size="20px" fill="#000000" text-anchor="middle" style="white-space: pre;" direction="ltr" dominant-baseline="text-before-edge">(e.g. text, images, ...)</text></g><g stroke-linecap="round" transform="translate(30 724.3820565548862) rotate(0 286.5 30.425055464761613)"><path d="M4.05 3.52 C4.05 3.52, 4.05 3.52, 4.05 3.52 M4.05 3.52 C4.05 3.52, 4.05 3.52, 4.05 3.52 M0.51 13.69 C3.77 9.69, 6.26 7.05, 11 1.62 M0.51 13.69 C3.18 8.93, 7.11 5.76, 11 1.62 M2.87 17.07 C8.99 16.26, 10.69 13.81, 16.65 1.22 M2.87 17.07 C5.63 12.85, 10.15 8.62, 16.65 1.22 M2.61 23.47 C8.5 19.1, 18.58 6.22, 21.63 1.58 M2.61 23.47 C9.8 17.38, 15.49 11.56, 21.63 1.58 M3 29.11 C9.51 19.36, 15.8 10.1, 27.28 1.19 M3 29.11 C11.79 18.57, 18.56 11.72, 27.28 1.19 M2.74 35.51 C16.15 26.9, 22.11 9.08, 32.26 1.55 M2.74 35.51 C14.17 22.59, 25.8 9.04, 32.26 1.55 M3.14 41.15 C13.19 29.56, 23.75 17.2, 37.91 1.15 M3.14 41.15 C9.18 31.83, 17.87 22.49, 37.91 1.15 M3.53 46.8 C16.01 36.8, 21.91 23.37, 42.89 1.51 M3.53 46.8 C13.91 36.25, 22.25 27.58, 42.89 1.51 M2.61 53.95 C17.02 37.67, 29.1 22.87, 48.54 1.12 M2.61 53.95 C11.13 40.93, 22.26 29.73, 48.54 1.12 M4.98 57.33 C13.04 44.32, 30.67 30.84, 53.52 1.48 M4.98 57.33 C26.14 35.67, 43.43 10.63, 53.52 1.48 M8 59.95 C23.24 48.76, 33.27 37.15, 59.17 1.08 M8 59.95 C23.68 41.5, 38.22 22.9, 59.17 1.08 M12.33 61.07 C31.46 34.14, 50.14 16.87, 64.15 1.44 M12.33 61.07 C32.08 38.15, 53.11 14.68, 64.15 1.44 M17.31 61.43 C34.93 39.96, 46.05 23.69, 69.8 1.05 M17.31 61.43 C35.53 36.81, 58.48 16.56, 69.8 1.05 M22.96 61.03 C37.27 45.18, 47.75 33.47, 74.79 1.41 M22.96 61.03 C37.76 41.16, 55.96 24.39, 74.79 1.41 M27.94 61.39 C43 44.2, 63.04 23.18, 80.43 1.01 M27.94 61.39 C39.98 45.75, 51.88 34.26, 80.43 1.01 M33.59 61 C43.98 52.79, 54.94 37.84, 85.42 1.37 M33.59 61 C46.01 45.86, 57.26 32.02, 85.42 1.37 M38.57 61.36 C62.39 39.54, 78.01 12.63, 91.06 0.98 M38.57 61.36 C57.79 42.03, 73.24 22.42, 91.06 0.98 M44.22 60.96 C62.08 40.3, 77.74 28.42, 96.05 1.34 M44.22 60.96 C58.76 42.31, 73.61 26.78, 96.05 1.34 M49.2 61.32 C60.06 47.39, 73.36 27.34, 101.69 0.95 M49.2 61.32 C67.88 36.77, 87.89 14.17, 101.69 0.95 M54.85 60.93 C72.61 48.28, 87.01 29.1, 106.68 1.31 M54.85 60.93 C71.2 44.2, 86 24.01, 106.68 1.31 M59.83 61.29 C81.01 38.99, 97.36 10.56, 112.32 0.91 M59.83 61.29 C73.24 45.76, 88.01 27.82, 112.32 0.91 M65.48 60.89 C80.44 42.57, 97.31 21.74, 117.31 1.27 M65.48 60.89 C86.85 36.61, 107.65 13.05, 117.31 1.27 M70.46 61.25 C79.19 50.51, 96.47 37.48, 122.29 1.63 M70.46 61.25 C91.24 39.22, 107.64 20.76, 122.29 1.63 M76.11 60.86 C92.97 38.45, 114.39 17.99, 127.94 1.24 M76.11 60.86 C84.89 49.93, 96.23 35.01, 127.94 1.24 M81.09 61.22 C98.31 45.43, 116.13 28.2, 132.92 1.6 M81.09 61.22 C91.67 45.12, 106.81 32.07, 132.92 1.6 M86.74 60.82 C100.87 45.85, 113.66 32.45, 138.57 1.2 M86.74 60.82 C104.72 38.56, 122.92 17.88, 138.57 1.2 M91.72 61.18 C100.58 43.91, 117.5 34.48, 143.55 1.56 M91.72 61.18 C104.47 48.92, 119.02 31.69, 143.55 1.56 M96.71 61.54 C108.6 49.16, 114.6 34.71, 149.2 1.17 M96.71 61.54 C114.71 40.17, 131.48 18.81, 149.2 1.17 M102.35 61.15 C116.43 42.56, 125.53 27.04, 154.18 1.53 M102.35 61.15 C119.87 40.04, 140.2 17.79, 154.18 1.53 M107.34 61.51 C120.7 41.86, 138.8 28.2, 159.83 1.13 M107.34 61.51 C123.98 40.96, 144.69 19.1, 159.83 1.13 M112.98 61.12 C129.92 41.89, 140.02 26.71, 164.81 1.49 M112.98 61.12 C129.67 40.43, 149.78 21.46, 164.81 1.49 M117.97 61.48 C142.51 34.36, 157.61 13.27, 170.46 1.1 M117.97 61.48 C130.31 49.9, 139.35 36.57, 170.46 1.1 M123.61 61.08 C140.38 36.59, 156.24 19.02, 175.44 1.46 M123.61 61.08 C142.44 40.54, 159.45 23.07, 175.44 1.46 M128.6 61.44 C139 46.08, 154.49 36.01, 181.09 1.06 M128.6 61.44 C144.54 42.68, 162.09 18.39, 181.09 1.06 M134.24 61.05 C151.11 37.83, 175.39 12.4, 186.07 1.42 M134.24 61.05 C145.93 47.15, 158.01 31.79, 186.07 1.42 M139.23 61.41 C161.18 43.16, 176.04 17.32, 191.72 1.03 M139.23 61.41 C156.76 40.84, 174.28 20.41, 191.72 1.03 M144.87 61.01 C167.08 34.74, 186.16 15.65, 196.7 1.39 M144.87 61.01 C158.26 47.82, 169.67 34.18, 196.7 1.39 M149.86 61.37 C163.57 47.41, 172.5 30.62, 202.35 1 M149.86 61.37 C161.6 47.27, 172.37 34.31, 202.35 1 M155.5 60.98 C170.88 46.85, 180.82 34.42, 207.33 1.36 M155.5 60.98 C176.76 40.42, 194.25 19.68, 207.33 1.36 M160.49 61.34 C171.47 53.44, 182.02 34.28, 212.98 0.96 M160.49 61.34 C175.85 42.26, 193.43 23.52, 212.98 0.96 M166.13 60.94 C183.42 35.87, 206.92 19.16, 217.96 1.32 M166.13 60.94 C184.41 39.04, 203.11 14.4, 217.96 1.32 M171.12 61.3 C179.56 49.5, 190.08 37.02, 222.95 1.68 M171.12 61.3 C184.17 43.71, 197.78 28.19, 222.95 1.68 M176.76 60.91 C188.22 45.55, 200.69 28.41, 228.59 1.29 M176.76 60.91 C192.07 38.53, 212.61 17.84, 228.59 1.29 M181.75 61.27 C192.52 46.63, 207.66 30.33, 233.58 1.65 M181.75 61.27 C201.99 38.64, 220.44 15.34, 233.58 1.65 M187.39 60.87 C201.46 42.12, 216.74 30.01, 239.22 1.25 M187.39 60.87 C199.47 48.21, 208.27 36.52, 239.22 1.25 M192.38 61.23 C208.27 39.32, 227.32 25.98, 244.21 1.61 M192.38 61.23 C206.15 45.82, 221.16 30.81, 244.21 1.61 M197.37 61.59 C214.17 44.52, 225.91 26.55, 249.85 1.22 M197.37 61.59 C217 38.24, 237.97 18.29, 249.85 1.22 M203.01 61.2 C216.14 51.39, 224.21 33.38, 254.84 1.58 M203.01 61.2 C211.6 47.53, 224.99 34.57, 254.84 1.58 M208 61.56 C223.57 42.11, 238.5 30.11, 260.48 1.18 M208 61.56 C224.42 39.9, 241.07 21.13, 260.48 1.18 M213.64 61.16 C224.57 45.7, 234.06 37.52, 265.47 1.54 M213.64 61.16 C232.84 37.53, 255.69 12.57, 265.47 1.54 M218.63 61.52 C231.16 40.19, 249.97 22.55, 271.11 1.15 M218.63 61.52 C237 40.14, 255.02 18.67, 271.11 1.15 M224.27 61.13 C242.11 40.43, 265.43 11.08, 276.1 1.51 M224.27 61.13 C241.74 42.72, 256.79 22.22, 276.1 1.51 M229.26 61.49 C244.44 39.86, 263.49 20.17, 281.74 1.11 M229.26 61.49 C242.3 42.29, 255.18 25.74, 281.74 1.11 M234.9 61.1 C249.38 48.81, 258.9 30.03, 286.73 1.47 M234.9 61.1 C251.15 41.9, 271.81 19.68, 286.73 1.47 M239.89 61.46 C260.62 36.16, 281.79 15.65, 292.37 1.08 M239.89 61.46 C256.07 41.82, 274.34 21.8, 292.37 1.08 M245.53 61.06 C265.29 37.59, 284.27 16.71, 297.36 1.44 M245.53 61.06 C264.04 39.06, 279.14 20.73, 297.36 1.44 M250.52 61.42 C266.43 40.72, 290.99 16.72, 303 1.04 M250.52 61.42 C270.66 38.83, 287.68 15.57, 303 1.04 M256.16 61.03 C265.72 44.37, 281.18 36.29, 307.99 1.4 M256.16 61.03 C264.53 49.77, 275.84 35.27, 307.99 1.4 M261.15 61.39 C283.96 41.1, 300.94 17.42, 313.63 1.01 M261.15 61.39 C278.46 37.83, 301.14 16.73, 313.63 1.01 M266.79 60.99 C283.23 44.27, 296.86 24.32, 318.62 1.37 M266.79 60.99 C281.06 47.1, 293.56 33.43, 318.62 1.37 M271.78 61.35 C288.58 37.39, 305.93 19.09, 323.61 1.73 M271.78 61.35 C282.87 48.02, 291.83 36.4, 323.61 1.73 M277.42 60.96 C288.92 39.55, 306.7 23.64, 329.25 1.34 M277.42 60.96 C295.36 39.43, 313.98 19.03, 329.25 1.34 M282.41 61.32 C301.25 43.28, 321.32 18.28, 334.24 1.7 M282.41 61.32 C291.11 48.5, 304.81 35.54, 334.24 1.7 M288.05 60.92 C300.27 45.54, 317.9 22.7, 339.88 1.3 M288.05 60.92 C305.52 40.77, 324.69 20.1, 339.88 1.3 M293.04 61.28 C306.25 41.11, 322.14 27.37, 344.87 1.66 M293.04 61.28 C304.92 47.34, 318.52 33.28, 344.87 1.66 M298.03 61.64 C319.99 33.45, 338.24 13.97, 350.51 1.27 M298.03 61.64 C317.57 40.97, 337.33 18.88, 350.51 1.27 M303.67 61.25 C318.48 47.62, 328.91 35.42, 355.5 1.63 M303.67 61.25 C315.08 46.92, 323.39 35.39, 355.5 1.63 M308.66 61.61 C322.37 42.25, 340.56 27, 361.14 1.23 M308.66 61.61 C328.82 40.01, 351.63 15.05, 361.14 1.23 M314.3 61.21 C333.67 39.46, 344.91 21.78, 366.13 1.59 M314.3 61.21 C333.88 40.27, 352.42 18.94, 366.13 1.59 M319.29 61.57 C328.62 47.5, 341.39 35.46, 371.77 1.2 M319.29 61.57 C333.2 44.7, 351.7 24.98, 371.77 1.2 M324.93 61.18 C343.62 43.56, 361 18.51, 376.76 1.56 M324.93 61.18 C344.12 36.56, 364.71 13.53, 376.76 1.56 M329.92 61.54 C349.25 35.27, 369.43 16.17, 382.4 1.16 M329.92 61.54 C346.48 40.85, 365.72 18.7, 382.4 1.16 M335.56 61.15 C352.94 37.22, 369.11 18.46, 387.39 1.52 M335.56 61.15 C351.72 43.61, 367.56 24.07, 387.39 1.52 M340.55 61.51 C362.44 39.54, 378.18 18.6, 393.03 1.13 M340.55 61.51 C354.16 43.75, 372.15 22.43, 393.03 1.13 M346.19 61.11 C363.82 39.68, 376.65 22.9, 398.02 1.49 M346.19 61.11 C356.96 47.82, 369.32 34.67, 398.02 1.49 M351.18 61.47 C368.3 46.79, 381.71 32.89, 403.66 1.09 M351.18 61.47 C362.27 48.24, 377.96 32.46, 403.66 1.09 M356.82 61.08 C376.12 40.67, 392.97 22.04, 408.65 1.45 M356.82 61.08 C369.72 43.79, 386.63 26.21, 408.65 1.45 M361.81 61.44 C382.2 38.9, 400.45 13.01, 414.29 1.06 M361.81 61.44 C379.68 40.32, 396.97 22.7, 414.29 1.06 M367.45 61.04 C384.91 39.95, 406.12 18.51, 419.28 1.42 M367.45 61.04 C378.31 46.87, 390.17 36.69, 419.28 1.42 M372.44 61.4 C396.64 35.61, 415.33 11.69, 424.27 1.78 M372.44 61.4 C388.84 38.22, 408.86 18.31, 424.27 1.78 M378.08 61.01 C387.73 47.53, 400.55 31.57, 429.91 1.39 M378.08 61.01 C397.35 40.68, 414.73 17.23, 429.91 1.39 M383.07 61.37 C391.52 46.59, 405.13 35, 434.9 1.75 M383.07 61.37 C402.19 42.49, 420.04 20.4, 434.9 1.75 M388.71 60.97 C401.21 39.91, 420.8 25.64, 440.54 1.35 M388.71 60.97 C406.38 37.34, 425.21 15.72, 440.54 1.35 M393.7 61.33 C414.61 43.96, 427.53 20.97, 445.53 1.71 M393.7 61.33 C408.67 45.94, 418.22 29.7, 445.53 1.71 M399.34 60.94 C418.16 35.46, 442.34 17.21, 451.17 1.32 M399.34 60.94 C420.78 39.56, 441.83 15.39, 451.17 1.32 M404.33 61.3 C422.18 42.36, 446.54 14.04, 456.16 1.68 M404.33 61.3 C416.2 46.85, 430.2 30.8, 456.16 1.68 M409.31 61.66 C429.34 39.2, 451.17 11.62, 461.8 1.28 M409.31 61.66 C425.97 46.8, 436.99 28.48, 461.8 1.28 M414.96 61.26 C426.39 45.85, 443.5 28.6, 466.79 1.64 M414.96 61.26 C429.92 44.64, 443.14 27.93, 466.79 1.64 M419.94 61.62 C430.69 47.38, 439.41 36.88, 472.43 1.25 M419.94 61.62 C438.28 39.73, 456.9 21.72, 472.43 1.25 M425.59 61.23 C438.62 47.87, 448.45 32.97, 477.42 1.61 M425.59 61.23 C442.53 42.46, 457.29 23.6, 477.42 1.61 M430.57 61.59 C450.8 41.44, 466.06 27.49, 483.06 1.21 M430.57 61.59 C439.76 46.83, 451.07 33.61, 483.06 1.21 M436.22 61.2 C453.51 38.84, 471.37 20.81, 488.05 1.57 M436.22 61.2 C451.16 42.73, 466.81 26.13, 488.05 1.57 M441.2 61.56 C456.74 50.83, 464.17 28.99, 493.69 1.18 M441.2 61.56 C452.36 48.55, 462.91 35.2, 493.69 1.18 M446.85 61.16 C461.76 46.5, 472.63 39.43, 498.68 1.54 M446.85 61.16 C462.85 43.54, 483.69 22.18, 498.68 1.54 M451.83 61.52 C463.89 47.1, 480.51 31.26, 504.32 1.14 M451.83 61.52 C468.21 41.91, 483.77 22.79, 504.32 1.14 M457.48 61.13 C471.6 45.78, 492.36 24, 509.31 1.5 M457.48 61.13 C477.12 38.19, 495.52 16.07, 509.31 1.5 M462.46 61.49 C485.17 41.98, 505.23 14.81, 514.95 1.11 M462.46 61.49 C473 46.43, 488.28 31.87, 514.95 1.11 M468.11 61.09 C484.97 38.92, 508.33 13.25, 519.94 1.47 M468.11 61.09 C484.25 43.7, 498.17 26.41, 519.94 1.47 M473.1 61.45 C489.13 39.85, 512.75 15.68, 524.92 1.83 M473.1 61.45 C492.4 42.1, 509.13 22.93, 524.92 1.83 M478.74 61.06 C499.79 37.22, 517.4 15.41, 530.57 1.44 M478.74 61.06 C490.86 46.37, 503.74 31.74, 530.57 1.44 M483.73 61.42 C494.08 48.4, 510.91 30.61, 535.55 1.8 M483.73 61.42 C497.3 42.8, 513.65 22.43, 535.55 1.8 M489.37 61.02 C500.49 43.21, 517.97 30.42, 541.2 1.4 M489.37 61.02 C503.98 46.17, 514.24 26.8, 541.2 1.4 M494.36 61.38 C503.94 46.44, 512.58 38.89, 546.18 1.76 M494.36 61.38 C510.02 43.8, 527.64 23.4, 546.18 1.76 M500 60.99 C521.72 36.92, 538.54 12.32, 551.83 1.37 M500 60.99 C514.23 42.4, 530.45 28.18, 551.83 1.37 M504.99 61.35 C513.3 46.54, 529.1 39.67, 556.81 1.73 M504.99 61.35 C524.28 36.22, 544.8 15.07, 556.81 1.73 M509.97 61.71 C521.93 47.75, 534.75 32.44, 562.46 1.33 M509.97 61.71 C525.81 40.32, 546.77 20.76, 562.46 1.33 M515.62 61.31 C528.49 51.94, 537.13 37.48, 566.13 3.2 M515.62 61.31 C531.08 44.37, 545.65 28.76, 566.13 3.2 M520.6 61.67 C539.23 43.97, 551.55 19.26, 570.46 4.32 M520.6 61.67 C535.74 44.2, 552.07 24.76, 570.46 4.32 M526.25 61.28 C539.68 50.46, 549.11 32.35, 572.17 8.45 M526.25 61.28 C538.76 44.99, 551.51 32.98, 572.17 8.45 M531.23 61.64 C541.27 44.62, 559.05 35.73, 571.91 14.85 M531.23 61.64 C541.8 49.33, 556.48 33.28, 571.91 14.85 M536.88 61.24 C550.34 42.96, 566.57 30.16, 572.3 20.49 M536.88 61.24 C544.81 54.54, 555.06 44.06, 572.3 20.49 M541.86 61.6 C553.16 49.09, 560.42 40.15, 572.7 26.13 M541.86 61.6 C550.83 50.97, 559.21 39.08, 572.7 26.13 M547.51 61.21 C553.99 51.89, 557.97 51.22, 572.44 32.53 M547.51 61.21 C556.88 51.67, 564.68 37.33, 572.44 32.53 M552.49 61.57 C562.86 50.4, 563.71 41.12, 572.83 38.17 M552.49 61.57 C560.57 55.52, 568.28 44.75, 572.83 38.17 M558.14 61.18 C559.15 52.37, 564.22 54.56, 572.57 44.57 M558.14 61.18 C561.62 56.83, 564.59 52.17, 572.57 44.57 M565.75 58.52 C569.56 57.12, 572.25 54.13, 573.62 49.46 M565.75 58.52 C568.6 54.97, 570 52.88, 573.62 49.46" stroke="#ced4da" stroke-width="0.5" fill="none"></path><path d="M15.21 0 M15.21 0 C205.26 -1.5, 392.37 -1.45, 557.79 0 M15.21 0 C144.33 4.27, 272.15 4.55, 557.79 0 M557.79 0 C567.9 1.47, 573.72 7.12, 573 15.21 M557.79 0 C569.69 3.64, 575.04 5.28, 573 15.21 M573 15.21 C570.19 20.18, 572.56 27.29, 573 45.64 M573 15.21 C571.71 20.43, 574.15 26.21, 573 45.64 M573 45.64 C574.53 52.28, 565.36 61.26, 557.79 60.85 M573 45.64 C568.84 54.95, 568.93 56.77, 557.79 60.85 M557.79 60.85 C429.43 60.48, 298.76 60.13, 15.21 60.85 M557.79 60.85 C368.08 62.55, 178.27 63.5, 15.21 60.85 M15.21 60.85 C1.18 63.39, 3 53.01, 0 45.64 M15.21 60.85 C5.8 64.27, 4.47 57.91, 0 45.64 M0 45.64 C-0.07 38.77, 1.3 27.05, 0 15.21 M0 45.64 C1.18 35.37, -1 22.68, 0 15.21 M0 15.21 C3.28 4.02, 6.64 1.46, 15.21 0 M0 15.21 C0.87 8.53, 2.01 -0.94, 15.21 0" stroke="#000000" stroke-width="1" fill="none"></path></g><g transform="translate(248 741.8071120196478) rotate(0 68.5 13)"><text x="68.5" y="0" font-family="Virgil, Segoe UI Emoji" font-size="20px" fill="#000000" text-anchor="middle" style="white-space: pre;" direction="ltr" dominant-baseline="text-before-edge">Static Footer</text></g></svg>